<svg aria-hidden="true" style="position: absolute; width: 0; height: 0; overflow: hidden;" version="1.1" xmlns="http://www.w3.org/2000/svg" xmlns:xlink="http://www.w3.org/1999/xlink">
<defs>
<symbol id="icon-fly" viewBox="0 0 32 32">
<path d="M15.467 0.18c8.443 0 15.287 6.845 15.287 15.288 0 8.442-6.845 15.287-15.287 15.287-8.443 0-15.288-6.845-15.288-15.287 0-8.443 6.845-15.288 15.288-15.288zM22.092 12.882c0.216-0.243 0.347-0.565 0.347-0.918 0-0.766-0.621-1.387-1.387-1.387-0.052 0-0.104 0.003-0.155 0.009l0.006-0.001c-0.384 0.041-0.717 0.233-0.943 0.515l-0.002 0.003-5.976 7.17-3.093-3.093c-0.252-0.252-0.599-0.407-0.983-0.407-0.768 0-1.39 0.622-1.39 1.39 0 0.384 0.156 0.731 0.407 0.983l4.171 4.169c0.252 0.251 0.599 0.406 0.982 0.406 0.428 0 0.81-0.193 1.066-0.497l0.002-0.002 6.949-8.34z"></path>
</symbol>
<symbol id="icon-search" viewBox="0 0 32 32">
<path d="M32 16c0 8.837-7.163 16-16 16s-16-7.163-16-16c0-8.837 7.163-16 16-16s16 7.163 16 16zM6.4 16c0 5.302 4.298 9.6 9.6 9.6s9.6-4.298 9.6-9.6c0-5.302-4.298-9.6-9.6-9.6s-9.6 4.298-9.6 9.6z"></path>
</symbol>
</defs>
</svg>
