<svg width="21" height="21" viewBox="0 0 21 21"xmlns="http://www.w3.org/2000/svg">
<path fill-rule="evenodd" clip-rule="evenodd" d="M10.1498 0.118164C4.60905 0.118164 0.117188 4.61002 0.117188 10.1507C0.117188 15.6915 4.60905 20.1833 10.1498 20.1833C15.6905 20.1833 20.1824 15.6915 20.1824 10.1507C20.1824 4.61002 15.6905 0.118164 10.1498 0.118164ZM14.4984 8.45433C14.5785 8.3628 14.6395 8.25617 14.6777 8.14073C14.716 8.0253 14.7308 7.90337 14.7212 7.78213C14.7117 7.66089 14.678 7.54279 14.6221 7.43477C14.5662 7.32675 14.4893 7.231 14.3959 7.15314C14.3024 7.07528 14.1944 7.0169 14.0781 6.98142C13.9617 6.94594 13.8395 6.93408 13.7185 6.94655C13.5976 6.95901 13.4803 6.99554 13.3736 7.05399C13.267 7.11244 13.1731 7.19163 13.0975 7.2869L9.1757 11.9922L7.14638 9.96195C6.97436 9.79581 6.74398 9.70388 6.50484 9.70596C6.2657 9.70804 6.03695 9.80396 5.86785 9.97306C5.69874 10.1422 5.60282 10.3709 5.60075 10.6101C5.59867 10.8492 5.6906 11.0796 5.85674 11.2516L8.59289 13.9878C8.68251 14.0773 8.7898 14.1472 8.90793 14.193C9.02606 14.2388 9.15244 14.2595 9.279 14.2538C9.40557 14.248 9.52955 14.2159 9.64304 14.1596C9.75653 14.1033 9.85705 14.024 9.93817 13.9266L14.4984 8.45433Z"/>
</svg>
